<svg width="1480" height="339" viewBox="0 0 1480 339" fill="none" xmlns="http://www.w3.org/2000/svg">
<g clip-path="url(#clip0_4512_15186)">
<path d="M17.6168 106.954L193.807 106.954C203.538 106.954 211.426 98.9901 211.426 89.1666V53.5926C211.426 43.7692 203.538 35.8057 193.807 35.8057L17.6168 35.8057C7.88605 35.8057 -0.00227356 43.7692 -0.00227356 53.5926V89.1666C-0.00227356 98.9901 7.88605 106.954 17.6168 106.954Z" fill="#F9F871"/>
<path d="M211.429 178.103C211.429 187.927 203.541 195.89 193.81 195.89H145.358V124.742H193.81C203.541 124.742 211.429 132.706 211.429 142.529V178.103Z" fill="#F9F871" fill-opacity="0.1"/>
<path d="M211.431 267.038C211.431 276.862 203.543 284.825 193.812 284.825H66.0737V213.677H193.812C203.543 213.677 211.431 221.64 211.431 231.464V267.038Z" fill="#F9F871" fill-opacity="0.1"/>
<path d="M66.0714 284.825H17.619C7.88831 284.825 -7.44352e-07 276.862 0 267.038L2.69552e-06 231.464C3.43987e-06 221.64 7.88832 213.677 17.619 213.677H66.0714V284.825Z" fill="#F9F871"/>
<path d="M145.357 195.89H17.619C7.88831 195.89 -7.4435e-07 187.927 0 178.103L2.69554e-06 142.529C3.43989e-06 132.706 7.88833 124.742 17.619 124.742H145.357V195.89Z" fill="#F9F871"/>
<path d="M379.443 267.035H338.285V64.9747H471.062V103.11H379.443V145.514H466.833V183.649H379.443V267.035ZM574.729 116.77V154.621C571.91 154.052 569.277 153.767 566.835 153.767C554.995 153.767 546.068 156.898 540.054 163.159C534.228 169.42 531.315 179.286 531.315 192.756V267.035H491.285V117.909H528.214V137.261C536.672 123.411 550.578 116.486 569.936 116.486L574.729 116.77ZM727.685 204.14H620.561C621.877 214.385 625.635 222.26 631.837 227.761C638.039 233.074 646.215 235.73 656.363 235.73C662.754 235.73 668.485 234.401 673.559 231.745C678.822 228.899 682.58 224.821 684.835 219.508H725.148C720.826 234.686 712.275 247.019 699.495 256.505C686.904 265.802 672.15 270.45 655.235 270.45C633.435 270.45 615.582 263.145 601.674 248.536C587.767 233.928 580.813 215.145 580.813 192.187C580.813 169.989 587.767 151.491 601.674 136.692C615.582 121.893 633.342 114.494 654.954 114.494C676.567 114.494 694.138 121.893 707.67 136.692C721.39 151.301 728.249 169.799 728.249 192.187L727.685 204.14ZM654.672 146.937C645.651 146.937 638.228 149.498 632.401 154.621C626.576 159.554 622.816 166.384 621.125 175.112H688.218C686.715 166.574 683.051 159.744 677.224 154.621C671.399 149.498 663.881 146.937 654.672 146.937ZM795.325 267.035H755.294V53.5911H795.325V267.035ZM921.184 199.871L885.664 205.848C870.63 208.503 863.112 214.385 863.112 223.492C863.112 233.928 870.535 239.145 885.383 239.145C896.847 239.145 905.68 236.109 911.882 230.038C918.083 223.967 921.184 215.903 921.184 205.848V199.871ZM876.362 270.45C859.823 270.45 847.043 266.275 838.023 257.928C829.002 249.58 824.491 238.481 824.491 224.631C824.491 211.539 829.095 201.104 838.304 193.326C847.701 185.547 862.173 180.14 881.718 177.104L921.184 171.127V169.704C921.184 155.095 912.352 147.791 894.685 147.791C878.146 147.791 869.032 153.862 867.341 166.005H827.874C829.19 151.396 835.204 139.158 845.916 129.292C856.628 119.427 872.79 114.494 894.404 114.494C915.828 114.494 931.99 119.332 942.891 129.008C953.792 138.684 959.242 152.344 959.242 169.989V240.283C959.242 251.477 960.651 260.395 963.47 267.035H924.849C924.661 267.035 924.474 266.371 924.285 265.043C924.097 263.714 923.815 261.722 923.44 259.066C923.251 256.22 923.158 253.374 923.158 250.528C913.948 263.81 898.35 270.45 876.362 270.45ZM1035.11 251.098V326.23H995.079V117.909H1032.01V136.123C1041.78 121.703 1057.38 114.494 1078.8 114.494C1099.67 114.494 1116.2 121.893 1128.42 136.692C1140.64 151.491 1146.74 170.084 1146.74 192.472C1146.74 214.86 1140.64 233.453 1128.42 248.252C1116.2 263.05 1099.67 270.45 1078.8 270.45C1069.03 270.45 1060.29 268.648 1052.59 265.043C1045.07 261.249 1039.24 256.599 1035.11 251.098ZM1043.85 162.02C1037.27 169.989 1033.98 180.14 1033.98 192.472C1033.98 204.803 1037.27 214.955 1043.85 222.923C1050.61 230.892 1059.45 234.876 1070.35 234.876C1081.25 234.876 1089.99 230.892 1096.56 222.923C1103.33 214.955 1106.71 204.803 1106.71 192.472C1106.71 180.14 1103.33 169.989 1096.56 162.02C1089.99 154.052 1081.25 150.068 1070.35 150.068C1059.45 150.068 1050.61 154.052 1043.85 162.02ZM1263.1 199.871L1227.58 205.848C1212.55 208.503 1205.03 214.385 1205.03 223.492C1205.03 233.928 1212.46 239.145 1227.3 239.145C1238.77 239.145 1247.6 236.109 1253.8 230.038C1260 223.967 1263.1 215.903 1263.1 205.848V199.871ZM1218.28 270.45C1201.74 270.45 1188.96 266.275 1179.94 257.928C1170.92 249.58 1166.41 238.481 1166.41 224.631C1166.41 211.539 1171.02 201.104 1180.23 193.326C1189.62 185.547 1204.09 180.14 1223.64 177.104L1263.1 171.127V169.704C1263.1 155.095 1254.27 147.791 1236.61 147.791C1220.07 147.791 1210.95 153.862 1209.26 166.005H1169.79C1171.11 151.396 1177.12 139.158 1187.84 129.292C1198.55 119.427 1214.71 114.494 1236.32 114.494C1257.75 114.494 1273.91 119.332 1284.81 129.008C1295.71 138.684 1301.16 152.344 1301.16 169.989V240.283C1301.16 251.477 1302.57 260.395 1305.39 267.035H1266.77C1266.58 267.035 1266.39 266.371 1266.21 265.043C1266.02 263.714 1265.74 261.722 1265.36 259.066C1265.17 256.22 1265.08 253.374 1265.08 250.528C1255.87 263.81 1240.27 270.45 1218.28 270.45ZM1345.89 326.23L1370.7 264.473L1312.34 117.909H1354.91L1390.43 217.516L1426.23 117.909H1467.95L1385.36 326.23H1345.89Z" fill="#F9F871"/>
</g>
<defs>
<clipPath id="clip0_4512_15186">
<rect width="1480" height="337.953" fill="white" transform="translate(0 0.231201)"/>
</clipPath>
</defs>
</svg>
