<svg width="1480" height="338" viewBox="0 0 1480 338" fill="none" xmlns="http://www.w3.org/2000/svg">
<g clip-path="url(#clip0_4519_5890)">
<mask id="mask0_4519_5890" style="mask-type:luminance" maskUnits="userSpaceOnUse" x="0" y="0" width="1480" height="338">
<path d="M1480 0H0V337.953H1480V0Z" fill="white"/>
</mask>
<g mask="url(#mask0_4519_5890)">
<path d="M17.6137 106.724H193.804C203.535 106.724 211.423 98.7604 211.423 88.9369V53.363C211.423 43.5395 203.535 35.5759 193.804 35.5759H17.6137C7.88294 35.5759 -0.00537109 43.5395 -0.00537109 53.363V88.9369C-0.00537109 98.7604 7.88294 106.724 17.6137 106.724Z" fill="#8D8D8D"/>
<path d="M211.435 177.872C211.435 187.695 203.547 195.659 193.816 195.659H145.363V124.51H193.816C203.547 124.51 211.435 132.475 211.435 142.297V177.872Z" fill="#8D8D8D" fill-opacity="0.1"/>
<path d="M211.43 266.806C211.43 276.63 203.543 284.594 193.812 284.594H66.0737V213.445H193.812C203.543 213.445 211.43 221.408 211.43 231.232V266.806Z" fill="#8D8D8D" fill-opacity="0.1"/>
<path d="M66.0714 284.594H17.619C7.8883 284.594 -7.44351e-07 276.63 0 266.806L2.69552e-06 231.232C3.43987e-06 221.408 7.88833 213.445 17.619 213.445H66.0714V284.594Z" fill="#8D8D8D"/>
<path d="M145.357 195.659H17.619C7.88831 195.659 -7.4435e-07 187.695 0 177.872L2.69554e-06 142.297C3.43989e-06 132.475 7.88833 124.51 17.619 124.51H145.357V195.659Z" fill="#8D8D8D"/>
<path d="M379.443 266.807H338.285V64.7467H471.062V102.882H379.443V145.286H466.834V183.421H379.443V266.807ZM574.729 116.542V154.393C571.91 153.824 569.278 153.539 566.835 153.539C554.995 153.539 546.068 156.67 540.055 162.931C534.229 169.192 531.315 179.058 531.315 192.528V266.807H491.285V117.681H528.214V137.033C536.672 123.183 550.578 116.258 569.936 116.258L574.729 116.542ZM727.685 203.913H620.561C621.877 214.157 625.635 222.031 631.837 227.533C638.039 232.846 646.214 235.502 656.363 235.502C662.754 235.502 668.485 234.173 673.559 231.517C678.822 228.672 682.58 224.593 684.835 219.28H725.148C720.826 234.458 712.276 246.791 699.494 256.277C686.904 265.574 672.149 270.222 655.235 270.222C633.435 270.222 615.582 262.917 601.673 248.308C587.767 233.7 580.812 214.917 580.812 191.959C580.812 169.761 587.767 151.263 601.673 136.464C615.582 121.665 633.342 114.266 654.953 114.266C676.567 114.266 694.138 121.665 707.671 136.464C721.39 151.073 728.25 169.571 728.25 191.959L727.685 203.913ZM654.671 146.709C645.65 146.709 638.228 149.27 632.401 154.393C626.577 159.326 622.816 166.156 621.125 174.884H688.218C686.715 166.346 683.051 159.516 677.224 154.393C671.399 149.27 663.881 146.709 654.671 146.709ZM795.325 266.807H755.294V53.363H795.325V266.807ZM921.184 199.643L885.664 205.62C870.63 208.276 863.112 214.157 863.112 223.264C863.112 233.7 870.535 238.916 885.382 238.916C896.847 238.916 905.679 235.881 911.881 229.81C918.083 223.739 921.184 215.674 921.184 205.62V199.643ZM876.361 270.222C859.823 270.222 847.043 266.047 838.022 257.699C829.001 249.352 824.491 238.253 824.491 224.403C824.491 211.311 829.095 200.876 838.304 193.098C847.701 185.319 862.173 179.912 881.718 176.876L921.184 170.899V169.476C921.184 154.867 912.352 147.563 894.685 147.563C878.147 147.563 869.032 153.635 867.34 165.776H827.874C829.19 151.167 835.203 138.93 845.917 129.064C856.628 119.198 872.791 114.266 894.403 114.266C915.828 114.266 931.991 119.104 942.891 128.78C953.792 138.456 959.241 152.116 959.241 169.761V240.055C959.241 251.248 960.651 260.166 963.47 266.807H924.849C924.661 266.807 924.474 266.144 924.285 264.815C924.097 263.485 923.815 261.494 923.439 258.838C923.252 255.992 923.158 253.146 923.158 250.301C913.949 263.582 898.35 270.222 876.361 270.222ZM1035.11 250.869V326.002H995.078V117.681H1032.01V135.894C1041.78 121.475 1057.38 114.266 1078.8 114.266C1099.67 114.266 1116.2 121.665 1128.42 136.464C1140.63 151.263 1146.74 169.856 1146.74 192.244C1146.74 214.633 1140.63 233.225 1128.42 248.023C1116.2 262.822 1099.67 270.222 1078.8 270.222C1069.03 270.222 1060.29 268.42 1052.59 264.815C1045.07 261.021 1039.24 256.371 1035.11 250.869ZM1043.85 161.792C1037.27 169.761 1033.98 179.912 1033.98 192.244C1033.98 204.576 1037.27 214.727 1043.85 222.695C1050.61 230.663 1059.45 234.648 1070.35 234.648C1081.25 234.648 1089.99 230.663 1096.56 222.695C1103.33 214.727 1106.71 204.576 1106.71 192.244C1106.71 179.912 1103.33 169.761 1096.56 161.792C1089.99 153.823 1081.25 149.84 1070.35 149.84C1059.45 149.84 1050.61 153.823 1043.85 161.792ZM1263.11 199.643L1227.59 205.62C1212.55 208.276 1205.04 214.157 1205.04 223.264C1205.04 233.7 1212.46 238.916 1227.31 238.916C1238.76 238.916 1247.6 235.881 1253.81 229.81C1260.01 223.739 1263.11 215.674 1263.11 205.62V199.643ZM1218.29 270.222C1201.74 270.222 1188.97 266.047 1179.95 257.699C1170.93 249.352 1166.42 238.253 1166.42 224.403C1166.42 211.311 1171.02 200.876 1180.23 193.098C1189.62 185.319 1204.09 179.912 1223.64 176.876L1263.11 170.899V169.476C1263.11 154.867 1254.27 147.563 1236.61 147.563C1220.07 147.563 1210.96 153.635 1209.27 165.776H1169.8C1171.11 151.167 1177.13 138.93 1187.84 129.064C1198.55 119.198 1214.71 114.266 1236.33 114.266C1257.75 114.266 1273.91 119.104 1284.82 128.78C1295.71 138.456 1301.17 152.116 1301.17 169.761V240.055C1301.17 251.248 1302.58 260.166 1305.39 266.807H1266.77C1266.58 266.807 1266.39 266.144 1266.21 264.815C1266.02 263.485 1265.74 261.494 1265.36 258.838C1265.17 255.992 1265.08 253.146 1265.08 250.301C1255.87 263.582 1240.27 270.222 1218.29 270.222ZM1345.89 326.002L1370.69 264.245L1312.34 117.681H1354.91L1390.43 217.287L1426.23 117.681H1467.95L1385.35 326.002H1345.89Z" fill="#8D8D8D"/>
</g>
</g>
<defs>
<clipPath id="clip0_4519_5890">
<rect width="1480" height="337.953" fill="white"/>
</clipPath>
</defs>
</svg>
