<svg width="1480" height="339" viewBox="0 0 1480 339" fill="none" xmlns="http://www.w3.org/2000/svg">
<g clip-path="url(#clip0_4512_15500)">
<mask id="mask0_4512_15500" style="mask-type:luminance" maskUnits="userSpaceOnUse" x="0" y="0" width="1480" height="339">
<path d="M1480 0.462646H0V338.415H1480V0.462646Z" fill="white"/>
</mask>
<g mask="url(#mask0_4512_15500)">
<path d="M17.6137 107.187H193.804C203.535 107.187 211.423 99.223 211.423 89.3996V53.8256C211.423 44.0021 203.535 36.0386 193.804 36.0386H17.6137C7.88294 36.0386 -0.00537109 44.0021 -0.00537109 53.8256V89.3996C-0.00537109 99.223 7.88294 107.187 17.6137 107.187Z" fill="white"/>
<path d="M211.435 178.335C211.435 188.157 203.547 196.121 193.816 196.121H145.363V124.973H193.816C203.547 124.973 211.435 132.937 211.435 142.76V178.335Z" fill="white" fill-opacity="0.1"/>
<path d="M211.43 267.268C211.43 277.092 203.543 285.056 193.812 285.056H66.0737V213.908H193.812C203.543 213.908 211.43 221.871 211.43 231.695V267.268Z" fill="white" fill-opacity="0.1"/>
<path d="M66.0714 285.056H17.619C7.8883 285.056 -7.44351e-07 277.092 0 267.268L2.69552e-06 231.695C3.43987e-06 221.871 7.88833 213.908 17.619 213.908H66.0714V285.056Z" fill="white"/>
<path d="M145.357 196.121H17.619C7.88831 196.121 -7.4435e-07 188.157 0 178.335L2.69553e-06 142.76C3.43989e-06 132.937 7.88833 124.973 17.619 124.973H145.357V196.121Z" fill="white"/>
<path d="M379.443 267.269H338.285V65.2093H471.062V103.345H379.443V145.749H466.834V183.884H379.443V267.269ZM574.729 117.005V154.856C571.91 154.287 569.278 154.002 566.835 154.002C554.995 154.002 546.068 157.133 540.055 163.393C534.229 169.655 531.315 179.521 531.315 192.991V267.269H491.285V118.144H528.214V137.496C536.672 123.645 550.578 116.72 569.936 116.72L574.729 117.005ZM727.685 204.375H620.561C621.877 214.62 625.635 222.494 631.837 227.996C638.039 233.309 646.214 235.964 656.363 235.964C662.754 235.964 668.485 234.636 673.559 231.98C678.822 229.134 682.58 225.056 684.835 219.743H725.148C720.826 234.92 712.276 247.253 699.494 256.739C686.904 266.036 672.149 270.685 655.235 270.685C633.435 270.685 615.582 263.379 601.673 248.77C587.767 234.163 580.812 215.38 580.812 192.422C580.812 170.223 587.767 151.726 601.673 136.927C615.582 122.128 633.342 114.728 654.953 114.728C676.567 114.728 694.138 122.128 707.671 136.927C721.39 151.536 728.25 170.033 728.25 192.422L727.685 204.375ZM654.671 147.171C645.65 147.171 638.228 149.733 632.401 154.856C626.577 159.789 622.816 166.619 621.125 175.346H688.218C686.715 166.809 683.051 159.979 677.224 154.856C671.399 149.733 663.881 147.171 654.671 147.171ZM795.325 267.269H755.294V53.8257H795.325V267.269ZM921.184 200.105L885.664 206.082C870.63 208.738 863.112 214.62 863.112 223.727C863.112 234.163 870.535 239.379 885.382 239.379C896.847 239.379 905.679 236.343 911.881 230.273C918.083 224.201 921.184 216.137 921.184 206.082V200.105ZM876.361 270.685C859.823 270.685 847.043 266.509 838.022 258.162C829.001 249.815 824.491 238.716 824.491 224.866C824.491 211.774 829.095 201.338 838.304 193.561C847.701 185.782 862.173 180.375 881.719 177.339L921.184 171.362V169.939C921.184 155.33 912.352 148.026 894.685 148.026C878.147 148.026 869.032 154.097 867.34 166.239H827.874C829.19 151.63 835.203 139.393 845.917 129.527C856.628 119.661 872.791 114.728 894.403 114.728C915.828 114.728 931.991 119.567 942.891 129.242C953.792 138.918 959.241 152.579 959.241 170.223V240.517C959.241 251.711 960.651 260.629 963.47 267.269H924.849C924.661 267.269 924.474 266.606 924.285 265.278C924.097 263.948 923.815 261.956 923.439 259.301C923.252 256.455 923.159 253.609 923.159 250.763C913.949 264.045 898.35 270.685 876.361 270.685ZM1035.11 251.332V326.465H995.078V118.144H1032.01V136.357C1041.78 121.938 1057.38 114.728 1078.8 114.728C1099.67 114.728 1116.2 122.128 1128.42 136.927C1140.63 151.726 1146.74 170.319 1146.74 192.706C1146.74 215.095 1140.63 233.687 1128.42 248.486C1116.2 263.285 1099.67 270.685 1078.8 270.685C1069.03 270.685 1060.29 268.882 1052.59 265.278C1045.07 261.483 1039.24 256.834 1035.11 251.332ZM1043.85 162.255C1037.27 170.223 1033.98 180.375 1033.98 192.706C1033.98 205.038 1037.27 215.19 1043.85 223.157C1050.61 231.126 1059.45 235.11 1070.35 235.11C1081.25 235.11 1089.99 231.126 1096.56 223.157C1103.33 215.19 1106.71 205.038 1106.71 192.706C1106.71 180.375 1103.33 170.223 1096.56 162.255C1089.99 154.286 1081.25 150.303 1070.35 150.303C1059.45 150.303 1050.61 154.286 1043.85 162.255ZM1263.11 200.105L1227.59 206.082C1212.55 208.738 1205.04 214.62 1205.04 223.727C1205.04 234.163 1212.46 239.379 1227.31 239.379C1238.76 239.379 1247.6 236.343 1253.81 230.273C1260.01 224.201 1263.11 216.137 1263.11 206.082V200.105ZM1218.29 270.685C1201.74 270.685 1188.97 266.509 1179.95 258.162C1170.93 249.815 1166.42 238.716 1166.42 224.866C1166.42 211.774 1171.02 201.338 1180.23 193.561C1189.62 185.782 1204.09 180.375 1223.64 177.339L1263.11 171.362V169.939C1263.11 155.33 1254.27 148.026 1236.61 148.026C1220.07 148.026 1210.96 154.097 1209.27 166.239H1169.8C1171.11 151.63 1177.13 139.393 1187.84 129.527C1198.55 119.661 1214.71 114.728 1236.33 114.728C1257.75 114.728 1273.91 119.567 1284.82 129.242C1295.71 138.918 1301.17 152.579 1301.17 170.223V240.517C1301.17 251.711 1302.58 260.629 1305.39 267.269H1266.77C1266.58 267.269 1266.39 266.606 1266.21 265.278C1266.02 263.948 1265.74 261.956 1265.36 259.301C1265.17 256.455 1265.08 253.609 1265.08 250.763C1255.87 264.045 1240.27 270.685 1218.29 270.685ZM1345.89 326.465L1370.69 264.708L1312.34 118.144H1354.91L1390.43 217.75L1426.23 118.144H1467.95L1385.35 326.465H1345.89Z" fill="white"/>
</g>
</g>
<defs>
<clipPath id="clip0_4512_15500">
<rect width="1480" height="337.953" fill="white" transform="translate(0 0.462646)"/>
</clipPath>
</defs>
</svg>
