<svg width="1480" height="338" viewBox="0 0 1480 338" fill="none" xmlns="http://www.w3.org/2000/svg">
<g clip-path="url(#clip0_4512_15178)">
<path d="M17.6168 106.722L193.807 106.722C203.538 106.722 211.426 98.7589 211.426 88.9354V53.3614C211.426 43.538 203.538 35.5745 193.807 35.5745L17.6168 35.5745C7.88605 35.5745 -0.00227356 43.538 -0.00227356 53.3614V88.9354C-0.00227356 98.7589 7.88605 106.722 17.6168 106.722Z" fill="#5536D1"/>
<path d="M211.429 177.871C211.429 187.695 203.541 195.658 193.81 195.658H145.358V124.51H193.81C203.541 124.51 211.429 132.474 211.429 142.297V177.871Z" fill="#5536D1" fill-opacity="0.1"/>
<path d="M211.431 266.806C211.431 276.63 203.543 284.593 193.812 284.593H66.0737V213.445H193.812C203.543 213.445 211.431 221.408 211.431 231.232V266.806Z" fill="#5536D1" fill-opacity="0.1"/>
<path d="M66.0714 284.593H17.619C7.88831 284.593 -7.44352e-07 276.63 0 266.806L2.69552e-06 231.232C3.43987e-06 221.408 7.88832 213.445 17.619 213.445H66.0714V284.593Z" fill="#5536D1"/>
<path d="M145.357 195.658H17.619C7.88831 195.658 -7.4435e-07 187.695 0 177.871L2.69554e-06 142.297C3.43989e-06 132.473 7.88833 124.51 17.619 124.51H145.357V195.658Z" fill="#5536D1"/>
<path d="M379.443 266.804H338.285V64.7435H471.062V102.879H379.443V145.283H466.833V183.418H379.443V266.804ZM574.729 116.539V154.39C571.91 153.821 569.277 153.536 566.835 153.536C554.995 153.536 546.068 156.667 540.054 162.928C534.228 169.189 531.315 179.055 531.315 192.525V266.804H491.285V117.678H528.214V137.03C536.672 123.18 550.578 116.255 569.936 116.255L574.729 116.539ZM727.685 203.909H620.561C621.877 214.154 625.635 222.028 631.837 227.53C638.039 232.843 646.215 235.498 656.363 235.498C662.754 235.498 668.485 234.17 673.559 231.514C678.822 228.668 682.58 224.59 684.835 219.277H725.148C720.826 234.454 712.275 246.788 699.495 256.274C686.904 265.571 672.15 270.219 655.235 270.219C633.435 270.219 615.582 262.914 601.674 248.305C587.767 233.697 580.813 214.914 580.813 191.956C580.813 169.758 587.767 151.259 601.674 136.461C615.582 121.662 633.342 114.262 654.954 114.262C676.567 114.262 694.138 121.662 707.67 136.461C721.39 151.07 728.249 169.568 728.249 191.956L727.685 203.909ZM654.672 146.706C645.651 146.706 638.228 149.267 632.401 154.39C626.576 159.323 622.816 166.153 621.125 174.88H688.218C686.715 166.343 683.051 159.513 677.224 154.39C671.399 149.267 663.881 146.706 654.672 146.706ZM795.325 266.804H755.294V53.3599H795.325V266.804ZM921.184 199.64L885.664 205.616C870.63 208.272 863.112 214.154 863.112 223.261C863.112 233.697 870.535 238.914 885.383 238.914C896.847 238.914 905.68 235.877 911.882 229.807C918.083 223.736 921.184 215.671 921.184 205.616V199.64ZM876.362 270.219C859.823 270.219 847.043 266.044 838.023 257.697C829.002 249.349 824.491 238.25 824.491 224.399C824.491 211.308 829.095 200.873 838.304 193.094C847.701 185.316 862.173 179.909 881.718 176.873L921.184 170.896V169.473C921.184 154.864 912.352 147.56 894.685 147.56C878.146 147.56 869.032 153.631 867.341 165.774H827.874C829.19 151.165 835.204 138.927 845.916 129.061C856.628 119.195 872.79 114.262 894.404 114.262C915.828 114.262 931.99 119.101 942.891 128.777C953.792 138.453 959.242 152.113 959.242 169.758V240.052C959.242 251.245 960.651 260.164 963.47 266.804H924.849C924.661 266.804 924.474 266.14 924.285 264.811C924.097 263.483 923.815 261.491 923.44 258.835C923.251 255.989 923.158 253.143 923.158 250.297C913.948 263.579 898.35 270.219 876.362 270.219ZM1035.11 250.866V325.999H995.079V117.678H1032.01V135.891C1041.78 121.472 1057.38 114.262 1078.8 114.262C1099.67 114.262 1116.2 121.662 1128.42 136.461C1140.64 151.259 1146.74 169.853 1146.74 192.241C1146.74 214.629 1140.64 233.222 1128.42 248.021C1116.2 262.819 1099.67 270.219 1078.8 270.219C1069.03 270.219 1060.29 268.417 1052.59 264.811C1045.07 261.017 1039.24 256.368 1035.11 250.866ZM1043.85 161.789C1037.27 169.758 1033.98 179.909 1033.98 192.241C1033.98 204.572 1037.27 214.723 1043.85 222.692C1050.61 230.66 1059.45 234.645 1070.35 234.645C1081.25 234.645 1089.99 230.66 1096.56 222.692C1103.33 214.723 1106.71 204.572 1106.71 192.241C1106.71 179.909 1103.33 169.758 1096.56 161.789C1089.99 153.821 1081.25 149.836 1070.35 149.836C1059.45 149.836 1050.61 153.821 1043.85 161.789ZM1263.1 199.64L1227.58 205.616C1212.55 208.272 1205.03 214.154 1205.03 223.261C1205.03 233.697 1212.46 238.914 1227.3 238.914C1238.77 238.914 1247.6 235.877 1253.8 229.807C1260 223.736 1263.1 215.671 1263.1 205.616V199.64ZM1218.28 270.219C1201.74 270.219 1188.96 266.044 1179.94 257.697C1170.92 249.349 1166.41 238.25 1166.41 224.399C1166.41 211.308 1171.02 200.873 1180.23 193.094C1189.62 185.316 1204.09 179.909 1223.64 176.873L1263.1 170.896V169.473C1263.1 154.864 1254.27 147.56 1236.61 147.56C1220.07 147.56 1210.95 153.631 1209.26 165.774H1169.79C1171.11 151.165 1177.12 138.927 1187.84 129.061C1198.55 119.195 1214.71 114.262 1236.32 114.262C1257.75 114.262 1273.91 119.101 1284.81 128.777C1295.71 138.453 1301.16 152.113 1301.16 169.758V240.052C1301.16 251.245 1302.57 260.164 1305.39 266.804H1266.77C1266.58 266.804 1266.39 266.14 1266.21 264.811C1266.02 263.483 1265.74 261.491 1265.36 258.835C1265.17 255.989 1265.08 253.143 1265.08 250.297C1255.87 263.579 1240.27 270.219 1218.28 270.219ZM1345.89 325.999L1370.7 264.242L1312.34 117.678H1354.91L1390.43 217.285L1426.23 117.678H1467.95L1385.36 325.999H1345.89Z" fill="#5536D1"/>
</g>
<defs>
<clipPath id="clip0_4512_15178">
<rect width="1480" height="337.953" fill="white"/>
</clipPath>
</defs>
</svg>
