<svg width="123" height="35" viewBox="0 0 123 35" fill="none" xmlns="http://www.w3.org/2000/svg">
<path d="M75.1545 32V26.4H77.1225C77.5172 26.4 77.8425 26.464 78.0985 26.592C78.3598 26.7147 78.5545 26.8853 78.6825 27.104C78.8105 27.3173 78.8745 27.5573 78.8745 27.824C78.8745 28.1867 78.7758 28.472 78.5785 28.68C78.3865 28.888 78.1545 29.032 77.8825 29.112C78.0905 29.1493 78.2798 29.232 78.4505 29.36C78.6212 29.488 78.7545 29.648 78.8505 29.84C78.9518 30.032 79.0025 30.2427 79.0025 30.472C79.0025 30.7547 78.9332 31.0133 78.7945 31.248C78.6558 31.4773 78.4505 31.6613 78.1785 31.8C77.9065 31.9333 77.5758 32 77.1865 32H75.1545ZM75.8265 28.848H77.0745C77.4318 28.848 77.7065 28.7653 77.8985 28.6C78.0905 28.4293 78.1865 28.1947 78.1865 27.896C78.1865 27.6133 78.0905 27.3867 77.8985 27.216C77.7118 27.0453 77.4292 26.96 77.0505 26.96H75.8265V28.848ZM75.8265 31.44H77.1145C77.4985 31.44 77.7945 31.352 78.0025 31.176C78.2105 30.9947 78.3145 30.744 78.3145 30.424C78.3145 30.1093 78.2052 29.8587 77.9865 29.672C77.7678 29.48 77.4718 29.384 77.0985 29.384H75.8265V31.44ZM83.375 32.096C82.9057 32.096 82.5323 31.9547 82.255 31.672C81.9777 31.384 81.839 30.944 81.839 30.352V28.032H82.511V30.28C82.511 31.1067 82.8497 31.52 83.527 31.52C83.8737 31.52 84.159 31.3973 84.383 31.152C84.6123 30.9013 84.727 30.5467 84.727 30.088V28.032H85.399V32H84.791L84.743 31.288C84.6203 31.5387 84.4363 31.736 84.191 31.88C83.951 32.024 83.679 32.096 83.375 32.096ZM90.0251 32.096C89.5505 32.096 89.1558 31.976 88.8411 31.736C88.5265 31.496 88.3425 31.1707 88.2891 30.76H88.9771C89.0198 30.968 89.1291 31.1493 89.3051 31.304C89.4865 31.4533 89.7291 31.528 90.0331 31.528C90.3158 31.528 90.5238 31.4693 90.6571 31.352C90.7905 31.2293 90.8571 31.0853 90.8571 30.92C90.8571 30.68 90.7691 30.52 90.5931 30.44C90.4225 30.36 90.1798 30.288 89.8651 30.224C89.6518 30.1813 89.4385 30.12 89.2251 30.04C89.0118 29.96 88.8331 29.848 88.6891 29.704C88.5451 29.5547 88.4731 29.36 88.4731 29.12C88.4731 28.7733 88.6011 28.4907 88.8571 28.272C89.1185 28.048 89.4705 27.936 89.9131 27.936C90.3345 27.936 90.6785 28.0427 90.9451 28.256C91.2171 28.464 91.3745 28.7627 91.4171 29.152H90.7531C90.7265 28.9493 90.6385 28.792 90.4891 28.68C90.3451 28.5627 90.1505 28.504 89.9051 28.504C89.6651 28.504 89.4785 28.5547 89.3451 28.656C89.2171 28.7573 89.1531 28.8907 89.1531 29.056C89.1531 29.216 89.2358 29.3413 89.4011 29.432C89.5718 29.5227 89.8011 29.6 90.0891 29.664C90.3345 29.7173 90.5665 29.784 90.7851 29.864C91.0091 29.9387 91.1905 30.0533 91.3291 30.208C91.4731 30.3573 91.5451 30.576 91.5451 30.864C91.5505 31.2213 91.4145 31.5173 91.1371 31.752C90.8651 31.9813 90.4945 32.096 90.0251 32.096ZM94.9131 27.152C94.7798 27.152 94.6678 27.1093 94.5771 27.024C94.4918 26.9333 94.4491 26.8213 94.4491 26.688C94.4491 26.56 94.4918 26.4533 94.5771 26.368C94.6678 26.2827 94.7798 26.24 94.9131 26.24C95.0411 26.24 95.1505 26.2827 95.2411 26.368C95.3318 26.4533 95.3771 26.56 95.3771 26.688C95.3771 26.8213 95.3318 26.9333 95.2411 27.024C95.1505 27.1093 95.0411 27.152 94.9131 27.152ZM94.5771 32V28.032H95.2491V32H94.5771ZM98.4192 32V28.032H99.0272L99.0672 28.744C99.1952 28.4933 99.3792 28.296 99.6192 28.152C99.8592 28.008 100.131 27.936 100.435 27.936C100.905 27.936 101.278 28.08 101.555 28.368C101.838 28.6507 101.979 29.088 101.979 29.68V32H101.307V29.752C101.307 28.9253 100.966 28.512 100.283 28.512C99.9419 28.512 99.6565 28.6373 99.4272 28.888C99.2032 29.1333 99.0912 29.4853 99.0912 29.944V32H98.4192ZM106.781 32.096C106.403 32.096 106.067 32.0107 105.773 31.84C105.48 31.664 105.248 31.4213 105.077 31.112C104.912 30.8027 104.829 30.4373 104.829 30.016C104.829 29.6 104.912 29.2373 105.077 28.928C105.243 28.6133 105.472 28.3707 105.765 28.2C106.064 28.024 106.408 27.936 106.797 27.936C107.181 27.936 107.512 28.024 107.789 28.2C108.072 28.3707 108.288 28.5973 108.437 28.88C108.587 29.1627 108.661 29.4667 108.661 29.792C108.661 29.8507 108.659 29.9093 108.653 29.968C108.653 30.0267 108.653 30.0933 108.653 30.168H105.493C105.509 30.472 105.579 30.7253 105.701 30.928C105.829 31.1253 105.987 31.2747 106.173 31.376C106.365 31.4773 106.568 31.528 106.781 31.528C107.059 31.528 107.291 31.464 107.477 31.336C107.664 31.208 107.8 31.0347 107.885 30.816H108.549C108.443 31.184 108.237 31.4907 107.933 31.736C107.635 31.976 107.251 32.096 106.781 32.096ZM106.781 28.504C106.461 28.504 106.176 28.6027 105.925 28.8C105.68 28.992 105.539 29.2747 105.501 29.648H107.997C107.981 29.2907 107.859 29.0107 107.629 28.808C107.4 28.6053 107.117 28.504 106.781 28.504ZM113.072 32.096C112.597 32.096 112.203 31.976 111.888 31.736C111.573 31.496 111.389 31.1707 111.336 30.76H112.024C112.067 30.968 112.176 31.1493 112.352 31.304C112.533 31.4533 112.776 31.528 113.08 31.528C113.363 31.528 113.571 31.4693 113.704 31.352C113.837 31.2293 113.904 31.0853 113.904 30.92C113.904 30.68 113.816 30.52 113.64 30.44C113.469 30.36 113.227 30.288 112.912 30.224C112.699 30.1813 112.485 30.12 112.272 30.04C112.059 29.96 111.88 29.848 111.736 29.704C111.592 29.5547 111.52 29.36 111.52 29.12C111.52 28.7733 111.648 28.4907 111.904 28.272C112.165 28.048 112.517 27.936 112.96 27.936C113.381 27.936 113.725 28.0427 113.992 28.256C114.264 28.464 114.421 28.7627 114.464 29.152H113.8C113.773 28.9493 113.685 28.792 113.536 28.68C113.392 28.5627 113.197 28.504 112.952 28.504C112.712 28.504 112.525 28.5547 112.392 28.656C112.264 28.7573 112.2 28.8907 112.2 29.056C112.2 29.216 112.283 29.3413 112.448 29.432C112.619 29.5227 112.848 29.6 113.136 29.664C113.381 29.7173 113.613 29.784 113.832 29.864C114.056 29.9387 114.237 30.0533 114.376 30.208C114.52 30.3573 114.592 30.576 114.592 30.864C114.597 31.2213 114.461 31.5173 114.184 31.752C113.912 31.9813 113.541 32.096 113.072 32.096ZM119.072 32.096C118.597 32.096 118.203 31.976 117.888 31.736C117.573 31.496 117.389 31.1707 117.336 30.76H118.024C118.067 30.968 118.176 31.1493 118.352 31.304C118.533 31.4533 118.776 31.528 119.08 31.528C119.363 31.528 119.571 31.4693 119.704 31.352C119.837 31.2293 119.904 31.0853 119.904 30.92C119.904 30.68 119.816 30.52 119.64 30.44C119.469 30.36 119.227 30.288 118.912 30.224C118.699 30.1813 118.485 30.12 118.272 30.04C118.059 29.96 117.88 29.848 117.736 29.704C117.592 29.5547 117.52 29.36 117.52 29.12C117.52 28.7733 117.648 28.4907 117.904 28.272C118.165 28.048 118.517 27.936 118.96 27.936C119.381 27.936 119.725 28.0427 119.992 28.256C120.264 28.464 120.421 28.7627 120.464 29.152H119.8C119.773 28.9493 119.685 28.792 119.536 28.68C119.392 28.5627 119.197 28.504 118.952 28.504C118.712 28.504 118.525 28.5547 118.392 28.656C118.264 28.7573 118.2 28.8907 118.2 29.056C118.2 29.216 118.283 29.3413 118.448 29.432C118.619 29.5227 118.848 29.6 119.136 29.664C119.381 29.7173 119.613 29.784 119.832 29.864C120.056 29.9387 120.237 30.0533 120.376 30.208C120.52 30.3573 120.592 30.576 120.592 30.864C120.597 31.2213 120.461 31.5173 120.184 31.752C119.912 31.9813 119.541 32.096 119.072 32.096Z" fill="#4328AF"/>
<path d="M1.17611 6.5918L18.3734 6.5918C19.0229 6.5918 19.5493 6.06604 19.5493 5.41748V2.42184C19.5493 1.77329 19.0229 1.24753 18.3734 1.24753L1.17611 1.24753C0.526684 1.24753 0.00022316 1.77329 0.00022316 2.42184V5.41748C0.00022316 6.06604 0.526684 6.5918 1.17611 6.5918Z" fill="#5536D1"/>
<path d="M6.10907 20.771H1.17589C0.526461 20.771 -5.28178e-08 20.2453 0 19.5967L2.43949e-07 16.6011C2.96776e-07 15.9525 0.526461 15.4268 1.17589 15.4268H6.1091L6.10907 20.771Z" fill="#5536D1"/>
<path d="M13.44 13.6812L1.17589 13.6812C0.526462 13.6812 -5.26209e-08 13.1554 0 12.5069L2.43995e-07 9.51123C2.9691e-07 8.86268 0.526462 8.33691 1.17589 8.33691H13.44V13.6812Z" fill="#5536D1"/>
<path d="M31.9487 17.6147H28.5151V0.93945H39.592V4.08661H31.9487V7.58606H39.2392V10.7332H31.9487V17.6147ZM48.2403 5.21394V8.33762C48.0051 8.29064 47.7855 8.26716 47.5818 8.26716C46.5941 8.26716 45.8492 8.5255 45.3476 9.0422C44.8614 9.5589 44.6186 10.3731 44.6186 11.4848V17.6147H41.2791V5.30789H44.3599V6.90495C45.0654 5.76197 46.2254 5.19046 47.8405 5.19046L48.2403 5.21394ZM61.0007 12.4242H52.064C52.1737 13.2697 52.4873 13.9195 53.0047 14.3736C53.5221 14.812 54.2041 15.0312 55.0508 15.0312C55.5837 15.0312 56.062 14.9216 56.4853 14.7024C56.9242 14.4675 57.2379 14.1309 57.426 13.6925H60.7891C60.4284 14.9451 59.7149 15.9628 58.649 16.7457C57.5983 17.5129 56.3677 17.8965 54.9567 17.8965C53.1379 17.8965 51.6483 17.2937 50.4883 16.0881C49.328 14.8824 48.748 13.3323 48.748 11.4378C48.748 9.60587 49.328 8.07927 50.4883 6.85798C51.6483 5.6367 53.1299 5.02606 54.9332 5.02606C56.7361 5.02606 58.2021 5.6367 59.331 6.85798C60.4754 8.06362 61.0478 9.59022 61.0478 11.4378L61.0007 12.4242ZM54.9096 7.70349C54.1571 7.70349 53.5377 7.91486 53.0517 8.33762C52.5655 8.74472 52.2521 9.30839 52.111 10.0286H57.7083C57.5827 9.32404 57.277 8.76037 56.7911 8.33762C56.3048 7.91486 55.6778 7.70349 54.9096 7.70349ZM66.6435 17.6147H63.304V0H66.6435V17.6147ZM77.1433 12.0719L74.18 12.5651C72.9257 12.7844 72.2986 13.2697 72.2986 14.0213C72.2986 14.8824 72.9177 15.313 74.1565 15.313C75.1128 15.313 75.8498 15.0625 76.3672 14.5615C76.8846 14.0604 77.1433 13.395 77.1433 12.5651V12.0719ZM73.404 17.8965C72.0241 17.8965 70.9581 17.5521 70.2056 16.8631C69.453 16.1742 69.0767 15.2582 69.0767 14.1152C69.0767 13.0349 69.4606 12.1737 70.2291 11.5317C71.0128 10.8898 72.2201 10.4435 73.8508 10.193L77.1433 9.69982V9.58239C77.1433 8.37675 76.4063 7.77395 74.9326 7.77395C73.5527 7.77395 72.7925 8.27499 72.6514 9.27706H69.3589C69.4686 8.07143 69.9704 7.06152 70.8641 6.24734C71.7577 5.43316 73.1059 5.02606 74.9091 5.02606C76.6964 5.02606 78.0446 5.42532 78.9541 6.22385C79.8634 7.02239 80.3182 8.14973 80.3182 9.60587V15.407C80.3182 16.3308 80.4358 17.0667 80.6709 17.6147H77.449C77.4331 17.6147 77.4176 17.5599 77.402 17.4503C77.3861 17.3407 77.3626 17.1763 77.3314 16.9571C77.3156 16.7222 77.3079 16.4873 77.3079 16.2525C76.5395 17.3485 75.2383 17.8965 73.404 17.8965ZM86.6474 16.2994V22.4998H83.3079V5.30789H86.3887V6.81101C87.2039 5.62105 88.5053 5.02606 90.2926 5.02606C92.0329 5.02606 93.4125 5.6367 94.4317 6.85798C95.4506 8.07927 95.9604 9.61371 95.9604 11.4613C95.9604 13.3089 95.4506 14.8433 94.4317 16.0646C93.4125 17.2859 92.0329 17.8965 90.2926 17.8965C89.4771 17.8965 88.7481 17.7478 88.1055 17.4503C87.4781 17.1371 86.9922 16.7535 86.6474 16.2994ZM87.3764 8.94826C86.8276 9.60587 86.5533 10.4435 86.5533 11.4613C86.5533 12.479 86.8276 13.3167 87.3764 13.9743C87.9408 14.6319 88.6775 14.9607 89.5871 14.9607C90.4963 14.9607 91.2254 14.6319 91.7742 13.9743C92.3387 13.3167 92.6209 12.479 92.6209 11.4613C92.6209 10.4435 92.3387 9.60587 91.7742 8.94826C91.2254 8.29064 90.4963 7.96184 89.5871 7.96184C88.6775 7.96184 87.9408 8.29064 87.3764 8.94826ZM105.668 12.0719L102.704 12.5651C101.45 12.7844 100.823 13.2697 100.823 14.0213C100.823 14.8824 101.442 15.313 102.681 15.313C103.637 15.313 104.374 15.0625 104.892 14.5615C105.409 14.0604 105.668 13.395 105.668 12.5651V12.0719ZM101.928 17.8965C100.548 17.8965 99.4825 17.5521 98.7299 16.8631C97.9773 16.1742 97.601 15.2582 97.601 14.1152C97.601 13.0349 97.985 12.1737 98.7534 11.5317C99.5371 10.8898 100.744 10.4435 102.375 10.193L105.668 9.69982V9.58239C105.668 8.37675 104.931 7.77395 103.457 7.77395C102.077 7.77395 101.317 8.27499 101.176 9.27706H97.8832C97.9929 8.07143 98.4947 7.06152 99.3884 6.24734C100.282 5.43316 101.63 5.02606 103.433 5.02606C105.221 5.02606 106.569 5.42532 107.478 6.22385C108.388 7.02239 108.842 8.14973 108.842 9.60587V15.407C108.842 16.3308 108.96 17.0667 109.195 17.6147H105.973C105.957 17.6147 105.942 17.5599 105.926 17.4503C105.91 17.3407 105.887 17.1763 105.856 16.9571C105.84 16.7222 105.832 16.4873 105.832 16.2525C105.064 17.3485 103.763 17.8965 101.928 17.8965ZM112.574 22.4998L114.643 17.4033L109.775 5.30789H113.326L116.29 13.5281L119.276 5.30789H122.757L115.866 22.4998H112.574Z" fill="#5536D1"/>
</svg>
