<svg width="1080" height="1080" viewBox="0 0 59 59" fill="none" xmlns="http://www.w3.org/2000/svg">
<rect width="59" height="59" fill="#4328AF"/>
<rect x="35" y="26.2849" width="12" height="3.28492" rx="0.5" transform="rotate(-180 35 26.2849)" fill="white"/>
<path d="M35 30.1425C35 30.4186 34.7761 30.6425 34.5 30.6425L31.25 30.6425L31.25 27.3575L34.5 27.3575C34.7761 27.3575 35 27.5814 35 27.8575L35 30.1425Z" fill="white" fill-opacity="0.1"/>
<path d="M35 34.5C35 34.7761 34.7761 35 34.5 35L26.75 35L26.75 31.7151L34.5 31.7151C34.7761 31.7151 35 31.9389 35 32.2151L35 34.5Z" fill="white" fill-opacity="0.1"/>
<path d="M26.75 35L23.5 35C23.2239 35 23 34.7761 23 34.5L23 32.2151C23 31.9389 23.2239 31.7151 23.5 31.7151L26.75 31.7151L26.75 35Z" fill="white"/>
<path d="M31.25 30.6425L23.5 30.6425C23.2239 30.6425 23 30.4186 23 30.1425L23 27.8575C23 27.5814 23.2239 27.3575 23.5 27.3575L31.25 27.3575L31.25 30.6425Z" fill="white"/>
</svg>