<svg width="258" height="59" viewBox="0 0 258 59" fill="none" xmlns="http://www.w3.org/2000/svg">
<path d="M3.07171 18.6316L33.786 18.6316C35.4823 18.6316 36.8574 17.2413 36.8574 15.5263V9.3158C36.8574 7.60081 35.4823 6.21054 33.786 6.21054L3.07171 6.21054C1.37541 6.21054 0.000282288 7.60081 0.000282288 9.3158V15.5263C0.000282288 17.2413 1.37541 18.6316 3.07171 18.6316Z" fill="#F9F871"/>
<path d="M36.8577 31.0526C36.8577 32.7676 35.4826 34.1579 33.7863 34.1579H25.3398V21.7368H33.7863C35.4826 21.7368 36.8577 23.1271 36.8577 24.8421V31.0526Z" fill="#5536D1" fill-opacity="0.1"/>
<path d="M36.8569 46.579C36.8569 48.294 35.4818 49.6842 33.7854 49.6842H11.5176V37.2632H33.7854C35.4818 37.2632 36.8569 38.6534 36.8569 40.3684V46.579Z" fill="#5536D1" fill-opacity="0.1"/>
<path d="M11.5179 49.6842H3.07143C1.37512 49.6842 -1.29759e-07 48.294 0 46.579L4.69895e-07 40.3684C5.99653e-07 38.6534 1.37513 37.2632 3.07143 37.2632H11.5179V49.6842Z" fill="#F9F871"/>
<path d="M25.3393 34.1579H3.07143C1.37512 34.1579 -1.29758e-07 32.7676 0 31.0526L4.69898e-07 24.8421C5.99657e-07 23.1271 1.37513 21.7368 3.07143 21.7368H25.3393V34.1579Z" fill="#F9F871"/>
<path d="M66.1456 46.5788H58.9707V11.303H82.117V17.9607H66.1456V25.3637H81.3798V32.0214H66.1456V46.5788ZM100.189 20.3456V26.9536C99.6972 26.8542 99.2384 26.8045 98.8127 26.8045C96.7487 26.8045 95.1924 27.351 94.1441 28.4441C93.1284 29.5371 92.6207 31.2596 92.6207 33.6113V46.5788H85.6424V20.5443H92.0801V23.9228C93.5544 21.5049 95.9787 20.2959 99.3532 20.2959L100.189 20.3456ZM126.853 35.5986H108.178C108.408 37.3873 109.063 38.762 110.144 39.7224C111.225 40.65 112.65 41.1136 114.42 41.1136C115.534 41.1136 116.533 40.8816 117.417 40.418C118.335 39.9211 118.99 39.2091 119.383 38.2816H126.41C125.657 40.9313 124.166 43.0845 121.938 44.7405C119.744 46.3636 117.172 47.175 114.223 47.175C110.423 47.175 107.31 45.8997 104.886 43.3494C102.462 40.799 101.249 37.5198 101.249 33.5119C101.249 29.6365 102.462 26.407 104.886 23.8235C107.31 21.2399 110.406 19.9481 114.174 19.9481C117.942 19.9481 121.005 21.2399 123.364 23.8235C125.755 26.3739 126.951 29.6034 126.951 33.5119L126.853 35.5986ZM114.125 25.6121C112.552 25.6121 111.258 26.0593 110.242 26.9536C109.227 27.8148 108.572 29.0072 108.277 30.5308H119.973C119.711 29.0403 119.072 27.8479 118.056 26.9536C117.041 26.0593 115.73 25.6121 114.125 25.6121ZM138.644 46.5788H131.666V9.31567H138.644V46.5788ZM160.584 34.8534L154.392 35.8967C151.771 36.3603 150.461 37.3873 150.461 38.9771C150.461 40.799 151.755 41.7098 154.343 41.7098C156.342 41.7098 157.881 41.1797 158.963 40.1199C160.044 39.0601 160.584 37.6521 160.584 35.8967V34.8534ZM152.771 47.175C149.887 47.175 147.66 46.4462 146.087 44.9889C144.515 43.5316 143.728 41.594 143.728 39.1759C143.728 36.8904 144.531 35.0686 146.136 33.7106C147.774 32.3527 150.297 31.4087 153.704 30.8786L160.584 29.8353V29.5868C160.584 27.0364 159.045 25.7611 155.965 25.7611C153.082 25.7611 151.493 26.8211 151.198 28.9409H144.318C144.547 26.3905 145.596 24.2541 147.463 22.5317C149.331 20.8093 152.148 19.9481 155.916 19.9481C159.651 19.9481 162.468 20.7927 164.368 22.482C166.269 24.1713 167.219 26.5561 167.219 29.6365V41.9085C167.219 43.8627 167.464 45.4196 167.956 46.5788H161.223C161.19 46.5788 161.158 46.463 161.125 46.231C161.092 45.9991 161.043 45.6513 160.977 45.1877C160.945 44.6908 160.928 44.194 160.928 43.6971C159.323 46.0158 156.604 47.175 152.771 47.175ZM180.444 43.7965V56.9131H173.466V20.5443H179.904V23.7241C181.607 21.2067 184.326 19.9481 188.061 19.9481C191.698 19.9481 194.581 21.2399 196.71 23.8235C198.84 26.407 199.905 29.6531 199.905 33.5616C199.905 37.4702 198.84 40.7161 196.71 43.2997C194.581 45.8833 191.698 47.175 188.061 47.175C186.358 47.175 184.834 46.8605 183.491 46.231C182.18 45.5687 181.165 44.757 180.444 43.7965ZM181.968 28.2454C180.821 29.6365 180.248 31.4087 180.248 33.5616C180.248 35.7144 180.821 37.4866 181.968 38.8778C183.147 40.2689 184.687 40.9645 186.587 40.9645C188.487 40.9645 190.011 40.2689 191.157 38.8778C192.337 37.4866 192.926 35.7144 192.926 33.5616C192.926 31.4087 192.337 29.6365 191.157 28.2454C190.011 26.8542 188.487 26.1586 186.587 26.1586C184.687 26.1586 183.147 26.8542 181.968 28.2454ZM220.189 34.8534L213.997 35.8967C211.376 36.3603 210.066 37.3873 210.066 38.9771C210.066 40.799 211.36 41.7098 213.948 41.7098C215.947 41.7098 217.486 41.1797 218.568 40.1199C219.649 39.0601 220.189 37.6521 220.189 35.8967V34.8534ZM212.376 47.175C209.492 47.175 207.265 46.4462 205.692 44.9889C204.12 43.5316 203.333 41.594 203.333 39.1759C203.333 36.8904 204.136 35.0686 205.741 33.7106C207.379 32.3527 209.902 31.4087 213.309 30.8786L220.189 29.8353V29.5868C220.189 27.0364 218.649 25.7611 215.57 25.7611C212.687 25.7611 211.098 26.8211 210.803 28.9409H203.923C204.152 26.3905 205.201 24.2541 207.068 22.5317C208.936 20.8093 211.753 19.9481 215.521 19.9481C219.256 19.9481 222.073 20.7927 223.973 22.482C225.873 24.1713 226.824 26.5561 226.824 29.6365V41.9085C226.824 43.8627 227.069 45.4196 227.561 46.5788H220.828C220.795 46.5788 220.762 46.463 220.73 46.231C220.697 45.9991 220.648 45.6513 220.583 45.1877C220.55 44.6908 220.533 44.194 220.533 43.6971C218.928 46.0158 216.209 47.175 212.376 47.175ZM234.621 56.9131L238.945 46.1317L228.773 20.5443H236.193L242.385 37.9338L248.627 20.5443H255.9L241.501 56.9131H234.621Z" fill="#F9F871"/>
</svg>
