<svg width="127" height="29" viewBox="0 0 127 29" fill="none" xmlns="http://www.w3.org/2000/svg">
<g clip-path="url(#clip0_202_2297)">
<path d="M1.51163 9.15784L16.6307 9.15784C17.4657 9.15784 18.1426 8.47448 18.1426 7.63152V4.57889C18.1426 3.73593 17.4657 3.05257 16.6307 3.05257L1.51163 3.05257C0.676624 3.05257 -0.000278473 3.73593 -0.000278473 4.57889V7.63152C-0.000278473 8.47448 0.676624 9.15784 1.51163 9.15784Z" fill="#5536D1"/>
<path d="M18.1428 15.2632C18.1428 16.1061 17.4659 16.7895 16.6309 16.7895H12.4731V10.6842H16.6309C17.4659 10.6842 18.1428 11.3676 18.1428 12.2105V15.2632Z" fill="#5536D1" fill-opacity="0.1"/>
<path d="M18.1431 22.8947C18.1431 23.7377 17.4663 24.4211 16.6312 24.4211H5.66992V18.3158H16.6312C17.4663 18.3158 18.1431 18.9991 18.1431 19.8421V22.8947Z" fill="#5536D1" fill-opacity="0.1"/>
<path d="M5.66964 24.4211H1.5119C0.676902 24.4211 -6.38734e-08 23.7377 0 22.8947L2.31305e-07 19.8421C2.95178e-07 18.9991 0.676904 18.3158 1.5119 18.3158H5.66964V24.4211Z" fill="#5536D1"/>
<path d="M12.4732 16.7895H1.5119C0.676902 16.7895 -6.38733e-08 16.1061 0 15.2632L2.31306e-07 12.2105C2.9518e-07 11.3676 0.676904 10.6842 1.5119 10.6842H12.4732V16.7895Z" fill="#5536D1"/>
<path d="M32.5601 22.8948H29.0283V5.55582H40.422V8.82824H32.5601V12.467H40.0592V15.7394H32.5601V22.8948ZM49.3178 10.0005V13.2485C49.0759 13.1996 48.85 13.1752 48.6404 13.1752C47.6244 13.1752 46.8584 13.4438 46.3424 13.9811C45.8424 14.5183 45.5924 15.365 45.5924 16.5209V22.8948H42.1574V10.0981H45.3263V11.7588C46.0521 10.5703 47.2454 9.97603 48.9065 9.97603L49.3178 10.0005ZM62.4431 17.4977H53.2507C53.3636 18.3769 53.6861 19.0526 54.2183 19.5247C54.7505 19.9806 55.452 20.2085 56.3229 20.2085C56.8713 20.2085 57.3631 20.0944 57.7985 19.8666C58.2501 19.6223 58.5726 19.2724 58.7661 18.8165H62.2254C61.8545 20.1189 61.1208 21.1772 60.024 21.9912C58.9436 22.789 57.6775 23.1878 56.2261 23.1878C54.3554 23.1878 52.8234 22.561 51.6299 21.3074C50.4366 20.0538 49.8398 18.442 49.8398 16.472C49.8398 14.5672 50.4366 12.9798 51.6299 11.7099C52.8234 10.44 54.3474 9.80508 56.2019 9.80508C58.0566 9.80508 59.5644 10.44 60.7256 11.7099C61.9029 12.9635 62.4915 14.5509 62.4915 16.472L62.4431 17.4977ZM56.1777 12.5891C55.4036 12.5891 54.7667 12.8089 54.2667 13.2485C53.7669 13.6717 53.4442 14.2579 53.2991 15.0068H59.0564C58.9274 14.2741 58.613 13.688 58.113 13.2485C57.6131 12.8089 56.968 12.5891 56.1777 12.5891ZM68.2473 22.8948H64.8122V4.57898H68.2473V22.8948ZM79.0474 17.1314L75.9994 17.6442C74.7093 17.8721 74.0642 18.3769 74.0642 19.1583C74.0642 20.0538 74.7011 20.5015 75.9752 20.5015C76.959 20.5015 77.7169 20.241 78.2491 19.72C78.7813 19.1991 79.0474 18.5071 79.0474 17.6442V17.1314ZM75.2011 23.1878C73.7819 23.1878 72.6853 22.8296 71.9112 22.1133C71.1371 21.397 70.7501 20.4446 70.7501 19.256C70.7501 18.1327 71.1451 17.2372 71.9354 16.5697C72.7417 15.9023 73.9836 15.4383 75.6608 15.1777L79.0474 14.6649V14.5428C79.0474 13.2892 78.2895 12.6623 76.7735 12.6623C75.3543 12.6623 74.5722 13.1833 74.427 14.2253H71.0404C71.1533 12.9717 71.6693 11.9216 72.5886 11.075C73.5078 10.2284 74.8947 9.80508 76.7493 9.80508C78.5878 9.80508 79.9747 10.2202 80.9101 11.0506C81.8455 11.8809 82.3131 13.0531 82.3131 14.5672V20.5992C82.3131 21.5597 82.4341 22.325 82.676 22.8948H79.3619C79.3457 22.8948 79.3297 22.8378 79.3135 22.7238C79.2973 22.6098 79.2731 22.4389 79.2409 22.211C79.2248 21.9668 79.2168 21.7226 79.2168 21.4783C78.4265 22.618 77.088 23.1878 75.2011 23.1878ZM88.8234 21.5272V27.9743H85.3883V10.0981H88.5573V11.6611C89.396 10.4237 90.7344 9.80508 92.5729 9.80508C94.363 9.80508 95.7822 10.44 96.8304 11.7099C97.8786 12.9798 98.4028 14.5753 98.4028 16.4965C98.4028 18.4176 97.8786 20.0131 96.8304 21.283C95.7822 22.5529 94.363 23.1878 92.5729 23.1878C91.7343 23.1878 90.9844 23.0332 90.3232 22.7238C89.6781 22.3983 89.1782 21.9993 88.8234 21.5272ZM89.5733 13.8834C89.0089 14.5672 88.7266 15.4383 88.7266 16.4965C88.7266 17.5546 89.0089 18.4257 89.5733 19.1095C90.1539 19.7933 90.9118 20.1352 91.8472 20.1352C92.7826 20.1352 93.5325 19.7933 94.0969 19.1095C94.6775 18.4257 94.9678 17.5546 94.9678 16.4965C94.9678 15.4383 94.6775 14.5672 94.0969 13.8834C93.5325 13.1996 92.7826 12.8577 91.8472 12.8577C90.9118 12.8577 90.1539 13.1996 89.5733 13.8834ZM108.388 17.1314L105.34 17.6442C104.05 17.8721 103.405 18.3769 103.405 19.1583C103.405 20.0538 104.042 20.5015 105.316 20.5015C106.299 20.5015 107.057 20.241 107.59 19.72C108.122 19.1991 108.388 18.5071 108.388 17.6442V17.1314ZM104.542 23.1878C103.122 23.1878 102.026 22.8296 101.252 22.1133C100.478 21.397 100.091 20.4446 100.091 19.256C100.091 18.1327 100.486 17.2372 101.276 16.5697C102.082 15.9023 103.324 15.4383 105.001 15.1777L108.388 14.6649V14.5428C108.388 13.2892 107.63 12.6623 106.114 12.6623C104.695 12.6623 103.913 13.1833 103.768 14.2253H100.381C100.494 12.9717 101.01 11.9216 101.929 11.075C102.848 10.2284 104.235 9.80508 106.09 9.80508C107.928 9.80508 109.315 10.2202 110.251 11.0506C111.186 11.8809 111.654 13.0531 111.654 14.5672V20.5992C111.654 21.5597 111.775 22.325 112.016 22.8948H108.702C108.686 22.8948 108.67 22.8378 108.654 22.7238C108.638 22.6098 108.614 22.4389 108.581 22.211C108.565 21.9668 108.557 21.7226 108.557 21.4783C107.767 22.618 106.428 23.1878 104.542 23.1878ZM115.492 27.9743L117.62 22.675L112.613 10.0981H116.266L119.314 18.6455L122.386 10.0981H125.966L118.878 27.9743H115.492Z" fill="#5536D1"/>
</g>
<defs>
<clipPath id="clip0_202_2297">
<rect width="127" height="29" fill="white"/>
</clipPath>
</defs>
</svg>
